REM DIRINDEX 1\2,1\3
REM DIRNAME folder01,folder02,folder03
TITLE ""
FILE "0721-0760.mp3" MP3
  TRACK 01 AUDIO
    TITLE "0:"
    INDEX 01 00:00:00
  TRACK 02 AUDIO
    TITLE "2:cjc039_0721"
    INDEX 01 00:00:27
  TRACK 03 AUDIO
    TITLE "0:"
    INDEX 01 00:01:58
  TRACK 04 AUDIO
    TITLE "2:cjc039_0722"
    INDEX 01 00:02:36
  TRACK 05 AUDIO
    TITLE "0:"
    INDEX 01 00:03:68
  TRACK 06 AUDIO
    TITLE "2:cjc039_0723"
    INDEX 01 00:04:46
  TRACK 07 AUDIO
    TITLE "0:"
    INDEX 01 00:06:10
  TRACK 08 AUDIO
    TITLE "2:cjc039_0724"
    INDEX 01 00:06:65
  TRACK 09 AUDIO
    TITLE "0:"
    INDEX 01 00:08:05
  TRACK 10 AUDIO
    TITLE "2:cjc039_0725"
    INDEX 01 00:08:56
  TRACK 11 AUDIO
    TITLE "0:"
    INDEX 01 00:09:71
  TRACK 12 AUDIO
    TITLE "2:cjc039_0726"
    INDEX 01 00:10:41
  TRACK 13 AUDIO
    TITLE "0:"
    INDEX 01 00:11:56
  TRACK 14 AUDIO
    TITLE "2:cjc039_0727"
    INDEX 01 00:12:32
  TRACK 15 AUDIO
    TITLE "0:"
    INDEX 01 00:13:49
  TRACK 16 AUDIO
    TITLE "2:cjc039_0728"
    INDEX 01 00:14:23
  TRACK 17 AUDIO
    TITLE "0:"
    INDEX 01 00:15:32
  TRACK 18 AUDIO
    TITLE "2:cjc039_0729"
    INDEX 01 00:16:04
  TRACK 19 AUDIO
    TITLE "0:"
    INDEX 01 00:17:10
  TRACK 20 AUDIO
    TITLE "2:cjc039_0730"
    INDEX 01 00:17:65
  TRACK 21 AUDIO
    TITLE "0:"
    INDEX 01 00:19:13
  TRACK 22 AUDIO
    TITLE "2:cjc039_0731"
    INDEX 01 00:19:67
  TRACK 23 AUDIO
    TITLE "0:"
    INDEX 01 00:21:17
  TRACK 24 AUDIO
    TITLE "2:cjc039_0732"
    INDEX 01 00:21:70
  TRACK 25 AUDIO
    TITLE "0:"
    INDEX 01 00:23:14
  TRACK 26 AUDIO
    TITLE "2:cjc039_0733"
    INDEX 01 00:23:69
  TRACK 27 AUDIO
    TITLE "0:"
    INDEX 01 00:25:17
  TRACK 28 AUDIO
    TITLE "2:cjc039_0734"
    INDEX 01 00:25:70
  TRACK 29 AUDIO
    TITLE "0:"
    INDEX 01 00:27:16
  TRACK 30 AUDIO
    TITLE "2:cjc039_0735"
    INDEX 01 00:27:69
  TRACK 31 AUDIO
    TITLE "0:"
    INDEX 01 00:29:44
  TRACK 32 AUDIO
    TITLE "2:cjc039_0736"
    INDEX 01 00:30:16
  TRACK 33 AUDIO
    TITLE "0:"
    INDEX 01 00:31:35
  TRACK 34 AUDIO
    TITLE "2:cjc039_0737"
    INDEX 01 00:32:11
  TRACK 35 AUDIO
    TITLE "0:"
    INDEX 01 00:33:26
  TRACK 36 AUDIO
    TITLE "2:cjc039_0738"
    INDEX 01 00:34:04
  TRACK 37 AUDIO
    TITLE "0:"
    INDEX 01 00:35:43
  TRACK 38 AUDIO
    TITLE "2:cjc039_0739"
    INDEX 01 00:36:23
  TRACK 39 AUDIO
    TITLE "0:"
    INDEX 01 00:37:40
  TRACK 40 AUDIO
    TITLE "2:cjc039_0740"
    INDEX 01 00:38:24
  TRACK 41 AUDIO
    TITLE "0:"
    INDEX 01 00:39:56
  TRACK 42 AUDIO
    TITLE "2:cjc039_0741"
    INDEX 01 00:40:34
  TRACK 43 AUDIO
    TITLE "0:"
    INDEX 01 00:41:49
  TRACK 44 AUDIO
    TITLE "2:cjc039_0742"
    INDEX 01 00:42:21
  TRACK 45 AUDIO
    TITLE "0:"
    INDEX 01 00:43:56
  TRACK 46 AUDIO
    TITLE "2:cjc039_0743"
    INDEX 01 00:44:34
  TRACK 47 AUDIO
    TITLE "0:"
    INDEX 01 00:45:61
  TRACK 48 AUDIO
    TITLE "2:cjc039_0744"
    INDEX 01 00:46:37
  TRACK 49 AUDIO
    TITLE "0:"
    INDEX 01 00:47:68
  TRACK 50 AUDIO
    TITLE "2:cjc039_0745"
    INDEX 01 00:48:42
  TRACK 51 AUDIO
    TITLE "0:"
    INDEX 01 00:49:70
  TRACK 52 AUDIO
    TITLE "2:cjc039_0746"
    INDEX 01 00:50:41
  TRACK 53 AUDIO
    TITLE "0:"
    INDEX 01 00:52:02
  TRACK 54 AUDIO
    TITLE "2:cjc039_0747"
    INDEX 01 00:52:55
  TRACK 55 AUDIO
    TITLE "0:"
    INDEX 01 00:53:74
  TRACK 56 AUDIO
    TITLE "2:cjc039_0748"
    INDEX 01 00:54:50
  TRACK 57 AUDIO
    TITLE "0:"
    INDEX 01 00:55:65
  TRACK 58 AUDIO
    TITLE "2:cjc039_0749"
    INDEX 01 00:56:45
  TRACK 59 AUDIO
    TITLE "0:"
    INDEX 01 00:57:70
  TRACK 60 AUDIO
    TITLE "2:cjc039_0750"
    INDEX 01 00:58:48
  TRACK 61 AUDIO
    TITLE "0:"
    INDEX 01 00:59:71
  TRACK 62 AUDIO
    TITLE "2:cjc039_0751"
    INDEX 01 01:00:49
  TRACK 63 AUDIO
    TITLE "0:"
    INDEX 01 01:02:14
  TRACK 64 AUDIO
    TITLE "2:cjc039_0752"
    INDEX 01 01:02:67
  TRACK 65 AUDIO
    TITLE "0:"
    INDEX 01 01:04:05
  TRACK 66 AUDIO
    TITLE "2:cjc039_0753"
    INDEX 01 01:04:56
  TRACK 67 AUDIO
    TITLE "0:"
    INDEX 01 01:05:73
  TRACK 68 AUDIO
    TITLE "2:cjc039_0754"
    INDEX 01 01:06:57
  TRACK 69 AUDIO
    TITLE "0:"
    INDEX 01 01:07:64
  TRACK 70 AUDIO
    TITLE "2:cjc039_0755"
    INDEX 01 01:08:50
  TRACK 71 AUDIO
    TITLE "0:"
    INDEX 01 01:10:20
  TRACK 72 AUDIO
    TITLE "2:cjc039_0756"
    INDEX 01 01:11:00
  TRACK 73 AUDIO
    TITLE "0:"
    INDEX 01 01:12:24
  TRACK 74 AUDIO
    TITLE "2:cjc039_0757"
    INDEX 01 01:13:02
  TRACK 75 AUDIO
    TITLE "0:"
    INDEX 01 01:14:55
  TRACK 76 AUDIO
    TITLE "2:cjc039_0758"
    INDEX 01 01:15:39
  TRACK 77 AUDIO
    TITLE "0:"
    INDEX 01 01:17:14
  TRACK 78 AUDIO
    TITLE "2:cjc039_0759"
    INDEX 01 01:17:57
  TRACK 79 AUDIO
    TITLE "0:"
    INDEX 01 01:18:74
  TRACK 80 AUDIO
    TITLE "2:cjc039_0760"
    INDEX 01 01:19:52
  TRACK 81 AUDIO
    TITLE "0:"
    INDEX 01 01:21:02
